<mxfile host="app.diagrams.net" modified="2023-02-07T08:23:49.908Z" agent="5.0 (Windows NT 10.0; Win64; x64) AppleWebKit/537.36 (KHTML, like Gecko) Chrome/109.0.0.0 Safari/537.36" etag="7FtP-jpxs_Xc2bOX1C9N" version="20.8.16" type="github">
  <diagram id="DlXyjQr6n5WtYV1fdJXM" name="Page-1">
    <mxGraphModel dx="794" dy="413" grid="1" gridSize="10" guides="1" tooltips="1" connect="1" arrows="1" fold="1" page="1" pageScale="1" pageWidth="850" pageHeight="1100" math="0" shadow="0">
      <root>
        <mxCell id="0" />
        <mxCell id="1" parent="0" />
      </root>
    </mxGraphModel>
  </diagram>
</mxfile>
